<?xml version="1.0" encoding="utf-8"?>
<!-- Generator: Adobe Illustrator 24.3.0, SVG Export Plug-In . SVG Version: 6.00 Build 0)  -->
<svg version="1.1" id="Layer_1" xmlns="http://www.w3.org/2000/svg" xmlns:xlink="http://www.w3.org/1999/xlink" x="0px" y="0px"
	 viewBox="0 0 545 545" style="enable-background:new 0 0 545 545;" xml:space="preserve">
<style type="text/css">
	.st0{fill:#FFFFFF;}
	.st1{fill:#E4002B;}
</style>
<g>
	<path class="st0" d="M519.2,6.9c10.4,0,18.8,8.4,18.8,18.8c0,0.5,0,1-0.1,1.5l-39.1,493.5c-0.8,9.8-9,17.4-18.8,17.3H64.9
		c-9.8,0-18-7.5-18.8-17.3L7,27.2C6.2,16.9,13.9,7.8,24.3,7c0.5,0,1-0.1,1.5-0.1H519.2"/>
	<path d="M519.2,6.9c10.4,0,18.8,8.4,18.8,18.8c0,0.5,0,1-0.1,1.5l-39.1,493.5c-0.8,9.8-9,17.4-18.8,17.3H64.9
		c-9.8,0-18-7.5-18.8-17.3L7,27.2C6.2,16.9,13.9,7.8,24.3,7c0.5,0,1-0.1,1.5-0.1H519.2 M519.2,0.3H25.8C11.7,0.3,0.3,11.7,0.3,25.8
		c0,0.7,0,1.3,0.1,2l39.1,493.5c1.1,13.2,12.2,23.4,25.4,23.4H480c13.3-0.1,24.3-10.2,25.4-23.4l39.2-493.5
		c1.1-14-9.4-26.3-23.4-27.4C520.6,0.3,519.9,0.3,519.2,0.3z"/>
	<path d="M384.8,215.4c-2.8,15.1-6,22.6-8,31.9c-2.1,9.7-6.3,23.8-10.3,24.2c-4.1,1.2-5.7-3.5-8.3,0c-1.5,2.1-2.8,4.8-4.1,6.6
		c-1,1.5-1.6,3.3-1.8,5.1c-0.1,7.7-0.9,15.4-2.6,23c-3.7,17.4-10.3,30.1-17.3,38.1c-13.3,15.3-25.8,17.8-27.2,18.6
		c-1.9,1-4.8,0.4-5.7,0s-1.7-1.6-3.3-3.2s-2.3,0.8-2.3,1.4s0.9,7.8-1,11.1c-4,7.1-7.8,7.7-9.9,16.5c-0.7,3-0.2,7.4-3.8,5.4
		c-8.7-5-21.1-18.3-23.6-31.3c-0.8-4,0-8.4,2.4-15.9c1.3-3.9,2.1-8,2.4-12.2c0-5-2-9.3,0-9.7c3.6-0.8,5.3,8.6,7,7.6
		c2.9-1.7,0.8-11.6,0.8-11.6s-1.2-2.8-6.4-4c-3-0.7-3.9-2.9-0.7-4.5c2.4-1.2,5.1-2.7,8.3-2.2c21.4,3,27.5-1.3,36.1-3.6
		c1.7-0.5,2.7-0.7,4,0s4.9,2.5,5.6,4.4s0,8.9,1.1,14.2s4.9,0.5,5.9-1.6c1-2.8,1.7-5.7,2.1-8.6c0.2-1.3,1.3-6.8,3.3-8.5
		c2.8-2.5,4.8-5.6,5.9-9.2c0.6-1.7,1.7-6.8,1.5-14.4s-1.5-8.4-3.3-10.1s-4-1.3-8.5-5.5c-4.1-3.8-7.4-9.8-10.4-13.6
		s-7.9-7.9-13.5-9.2s-3.3,3.8-3,5.2c0.2,1,1.5,5.6-0.3,7.1s-13.1,9.1-23.2,6.5c-12-3.1-16.1-9.8-16.4-16.3c-0.2-4.6,2-9,4.8-14.2
		c1.6-3.1,2.2-8.2,2.9-13.1c0.5-3.9,1.6-9.6,2.4-11.6c0.6-1.5,2.1-3,5.3-2.9s5.3,1.8,5.9,4.6c2.1,9.6,5.5,12.1,6.6,12.9
		s3.3-0.8,4.2-1.4s3-2.8,2.4-3.9c-0.8-1.2-1.4-2.6-1.8-4c-0.4-1.8,1.9-1.6,2.4-1.3c3.8,3,7.3,3.2,13.8,4.3c11.4,1.9,13-2.3,20.8-0.9
		c1.4,0.3,2.7,1,3.6,2.2c0.5,1,1.5,3.3,2.4,3.7c1.5,0.3,3,0.6,4.5,0.7c1.6,0.3,4.6,0.1,4.1,3.1c-1.3,8.2-10.7,10.4-15.1,11.2
		c-1.8,0.3-2.7,0.5-3,0.7c-1,0.8-1,3.4,0.1,5c0.8,1.2,4.3,1.2,9.2,0.3c5.8-1,10.8-4.4,13.9-9.5c4.1-6.4,6.3-20.4,6.8-23s1.5-7,3-7.9
		s8.1-2.9,9-2.8c1.1,0.2,1.9,0.7,2.5,3.3s-0.5,18.1-0.5,20.4c0,2.5,1.3,2.5,2,2.1c1.5-0.7,5.7-3.5,6.6-6.7c0.7-2.4-1.3-5.8-0.3-9.1
		c1.6-5.1,3.1-6.5,4.2-6.4c6.5,0.6,7.8,3.5,6.3,11.7 M292.8,298.6c-4.2,1.3-8.4,2.2-12.8,2.7c-3.4,0.2-14.2,0.9-16,0.8
		c-2.9-0.3-5.6-1.5-7.7-3.4c-0.5-0.5-1-2,1-2c3.7-0.1,10-2,31.5-0.2c2.3,0.2,3.4,0.3,3.9,0.3S295.3,297.9,292.8,298.6 M239.9,289.9
		c-10.5-0.1-15.3-4-16.1-5.2s0.5-2,1.6-2.4c3.1-1.1,6-2.5,8.6-4.4c1.8-1.3,6.7-4.4,9.2-6c1.2-0.8,7.9-3.7,11.8-1
		c5.9,4.1,11.4,6.9,21.5,6.3c6.5-0.4,6.4-5.6,11.6-7.3c2.6-0.7,5-1.9,7.2-3.5c1.9-0.4,3.4-0.9,5.5,1.1c2.6,2.5,3.6,4.4,6.7,7.9
		c4.2,4.7,8.8,7,10.3,7.2c1.1,0.2,2,0.9,2.5,1.9c0,0.5-0.6,2-4.8,3.2c-14.1,4.1-29.5,1.5-37.4-1.7c-4-1.6-7.9-2-12.3,0.1
		S249.7,290.1,239.9,289.9 M234.9,348.2c-8,0.3-29-12.4-38.1-48.3c-2.4-9.2,3.5-16.7,7.1-18c1.3-0.5,2.6-0.9,4-1.1
		c2-0.3,3.9,1,4.2,3c0.1,0.3,0.1,0.7,0,1c-0.1,3.3,2.6,31.2,9.9,41.3c1.8,2.5,3.5,2.6,4.3,0.4c0.8-2,2-4.7,2.4-5.7
		c0.3-0.7,2.9-4.8,3.7-1.7c1.7,6.5,5.6,20,7.2,23.4C242.5,348.2,238,348.1,234.9,348.2 M192.7,240.9c-0.6-2.4,0.5-6,6.2-2.4
		c2.1,1.1,4.3,2,6.6,2.6c1.3,0.6,2.9-0.1,3.4-1.4c0-0.1,0-0.1,0.1-0.2c0.5-1.3,2-3.9-0.5-5.1s-8.8-2.3-12.3-11.1
		c-0.5-1.5,0.1-3.1,1.5-3.8c1.2-0.5,2.6-0.1,3.4,0.9c1.2,1.1,3.6,3.5,5.9,3.6c2,0.1,2.4-0.7,2.8-1.2c1.7-1.9,6.7-9.2,16.9-7.9
		c4.2,0.5,8.1,1.5,9.5,1.6c2.2,0.2,4.4,0.1,6.5-0.3c3.1-0.6,7.7-1.5,5.4,1.1c-1.8,2.1-3.3,3-1.7,5.3l0.2,0.3c1.5,2,1.5,4.7,0,6.7
		l-0.2,0.3c-2.3,2.9-7,6.3-16.6,7c-4.4,0.3-4.7,0.1-4.8,2.6c-0.1,0.7,0,1.5,0.1,2.2c0.3,1.3,1.1,1.8,4.1,2c2.1,0,4.2-0.1,6.3-0.3
		c1-0.3,2.2,0.3,1.5,1.2c-0.1,0.1-0.5,0.7-0.6,0.8c-1.6,2-2.7,4.4-3.1,7c-0.1,1.3-0.9,2.5-2.1,3.1l0,0c-1.4,0.7-7.1,2-11.6,5.7
		s-13.8,6.8-17.9,2.2S194.5,248.5,192.7,240.9 M189.8,195.9c-1.3,0.1-2.3-0.6-3.7-0.9c-1.6-0.4-2.6,0.1-3.2-0.7s-0.5-1.8,0.4-2.1
		c0.8-0.2,1.7-0.3,2.5-0.3c1.9-0.4,4.2-2.5,5.9-0.1c0.8,1.2,0.5,2.9-0.7,3.7C190.6,195.7,190.2,195.9,189.8,195.9 M174.2,253
		c-4-2.7-3.8-6.2-4.9-9.7c-2.2-7.4-4.5-16.2-6.6-23.8c-1.2-4.6-1.5-15.3,4.6-15.3c3.1,0,5.4,1,6.4,3.9c2.2,6.5-2,5.4-0.9,13.1
		c0.8,5.5,1.8,10.8,3.5,20.1c0.8,4.3,2.2,14.6-1.6,12.1 M162.3,148.1c2.3-6.1,6.4-11.3,9.1-15c2.6-3.4,1.4-7.8,0-11.8
		c-0.9-3.7-3.2-7.5-3.6-8.5c-0.3-0.6-0.3-1.2,0-1.8l0.5-0.3l5-0.4c14.2-1.8,26.7-6.8,30.5-8.9c1.9-1,3.8-1.9,5.9-2.5
		c2.4-0.9,4.8-1.5,7.3-1.9c1.9-0.3,4-0.6,5.9-0.8c2.8-0.3,7.2,1.6,6.3,2.2c-2.4,1.4-13.4,4-23.1,15.5c-5.9,7.1-7.3,11.5-9.3,14.7
		c-2,3.2-3.7,4-6.5,6.5c-2.5,2-4.5,4.6-5.6,7.6c-1.4,4-6.8,18-7.5,40.1c-0.1,2.6-0.5,5.3-3,6.2l0,0c-2,0.8-3.6,2.1-4,0.7
		c-1.3-4.9-4.3-15.4-5.5-22c-0.4-2.1-0.9-4.2-1.4-6.3C161.9,156,161.2,151,162.3,148.1 M205.4,202c-2.6,1.6-5.1,3.5-7,4.8
		c-2.3,1.5-5.6,0.1-4.7-3.2c0.5-1.6,2.8-5.7,6.6-6.4c0.5-0.1,2.4-0.5,4-0.7c1.9-0.2,3.8-0.4,4.8-0.4c2.7-0.1,3,2,1.2,3.2
		C209.1,200,207.2,200.9,205.4,202 M209.1,206.9c1.1-0.7,2.2-1.3,3.3-1.9c1.6-0.9,3.5-2,5.5-3.3c3.5-2.3,10-4.6,12.8-4.5
		c2,0,5.5,0.9,7.4,2.9s2.5,4.6-0.1,4.2c-3.3-0.8-6.7-0.8-10,0c-4.1,1-8,2.5-11.7,4.5c-2,0.9-4.1,1.4-6.3,1.5
		C209,210.2,206.6,208.9,209.1,206.9 M249.1,254.9c0.6,1.2,0.8,2.6,0.7,3.9c-0.2,1-3.7,2.3-6.5-2c-2.3-3.6-2.2-8.2,0.2-11.6
		c2.7-3.3,6.9-0.9,6.3,0.3C248.2,248.4,247.9,251.8,249.1,254.9 M335.8,212.7c-1.1,0.5-5.1-0.8-6.2-1.4c-2.4-1.3-4.7-2.9-6.8-4.7
		c-2-1.7-5.6-2.5-9-2.3c-2.4,0.2-4.9,0.6-7.2,1.2c-2,0.5-2.1-1.3-1.5-2s3.4-3.2,9.4-4.8c1.1-0.2,2.3-0.2,3.5-0.1
		c2.9,0.5,5.6,2,7.7,4.1c2.8,2.7,5.8,5.1,9,7.3C335.8,210.7,338.3,211.5,335.8,212.7 M333.3,202.7c0,0-3.8-2.6-5-4.6
		c-0.6-1-0.5-1.9,1.1-1.9c5.6-0.1,10.8-0.2,13.3,1.9c1.8,1.5,1.9,4.7,1,6.8c-1,2.4-3.1,1.7-4.3,1.5S333.3,202.7,333.3,202.7
		 M361.5,194.3c-0.9,0.9-1.6,0.4-3.4,0.8c-1.4,0.3-2.3,1.1-3.5,1c-1.5-0.2-2.5-1.5-2.3-3c0-0.4,0.2-0.8,0.4-1.1c1.6-2.4,4-0.3,5.8,0
		c0.8,0,1.7,0.1,2.5,0.2C362,192.5,362.1,193.4,361.5,194.3 M199.2,85.5c1.4-1.8,3.1-3.5,5-4.8c2.3-1.6,13-9.6,23-12.6
		c1.9-0.5,2.3-0.8,3.5-1.1c1.5-0.4,2.8-3.6-0.4-4.1c-2.1-0.3-4.2-0.4-6.3-0.2c-1.7,0-2.6-0.9-1.3-2.3s3.6-2.8,7.7-4.4
		c8.9-3.5,24.6-5.4,32-6.1c9.6-0.8,10.7-0.8,17-0.3c4.2,0.4,8.4,1,12.6,1.9c11,2,23.7,7.1,34.9,13.3c5.9,3.5,11.6,7.4,17,11.6
		c16.1,12.6,34.7,36.5,32,86.9c-0.1,3.6-0.6,7.2-1.4,10.7c-0.4,1.5-2.3,4-3.4,0.7c-3.3-10.8-7.6-29.8-17.4-44.8
		c-1.4-2.1-3.5-1.9-3.3,0.3c0.1,0.9,0.5,10.5,0.3,12.4c-1.6,12.4,2.2,7.6,7.8,20.9c2.2,5.6,3.7,11.5,4.5,17.5
		c0.1,1.3,0.3,2.9,0.4,4.3c0,1.9-0.9,2-0.9,2c-3.8,0-10.5-1.8-14.1-2c-4.1-0.1-32.5-0.4-43.1,0.4s-16.5,4.6-22.5,9.6
		c-1,0.8-2.1,1.4-3.2,2c-0.4,0.2-0.9,0.3-1.3,0.2c-0.5-0.1-1.3-0.2-2.5-0.5c-2.7-0.7-5.6-0.7-8.3,0c-2.5,0.8-3.7,1.4-6.5-0.2
		c-3.9-2.3-9.9-11.4-30.9-11.6c-11.9-0.1-27.5-0.3-36.6,0.1c-3,0.1-4.5,0.5-5.3,0.5c0-0.3-0.1-0.6-0.1-0.9
		c-0.2-16.7,10.8-13,12-17.4c3.1-10.8,3.9-36.9,22.8-52.9c9-7.6,13.8-8,22.2-8c9,0,17.9,2.4,22.4,4.6c3.6,1.8,5.4,3,6.8,1.9
		s5.2-4.5,6.7-5.7s1-3.1-0.5-4.3s-14.9-18-35.4-21.4c-4.7-0.8-8.2-1.5-12.5-1.5c-3.3-0.1-6.5,0.1-9.8,0.5c-7.9,1-18.2,5.3-24.8,8
		c-0.4-0.4,1-2.6,1.4-3.2 M192.6,320.3c0.2,8.7,5.2,31.5,34.2,53.1c12.1,9,17.6,13.1,19.2,14.2v0.1c0.8,0.6-4.3,0.4-5.7,0.6
		c-2.3,0.2-10-0.5-16.2,0.7c-5.6,1-4.8,2.4-5.4,6.4c-0.4,3.2,0,8.3-0.2,12.6s-0.4,7.4,1.4,9.5s3,2.4,10.6,1.9
		c7.3-0.5,27.5-0.5,29.9-1c3.1-0.6,2.6,0.5,0.8,4.4c-3.1,6.6-13.1,36.9-28.8,65.8c-2.2,4,4,2.1,9.2,4.7c9.5,4.6,9.2,5.8,11.7,1.1
		c2.7-5.2,16.4-37.4,18.5-47.4c0.3-1.3,0.8-2.4,1-0.5c0.1,1.4,0.4,42.2-0.8,55c-0.1,0.7,0.1,1.4,0.6,1.9c0.7,0.6,1.6,1.1,2.6,1.2
		l0,0c4.7-1.6,10.4-2.7,15.3-1.9c0.4,0,0.8-0.1,1.2-0.3c0.3-0.2,0.5-0.5,0.7-0.8c0.4-0.7,0.6-1.4,0.8-2.2c0-0.1,0-0.1,0-0.2
		c0.2-1.1,0.4-2.2,0.5-3.3c0.1-0.7,0.1-1.3,0.2-2c0-0.8,0.1-1.7,0.1-2.5c0-1,0-2,0.1-3.1s0-2.4,0-3.5s0-2.6,0-4s0-1-0.1-2.4
		s-0.1-3.1-0.2-4.6s-0.1-3.3-0.2-4.9s-0.2-3.4-0.3-5.1s-0.3-3.5-0.4-5.2s-0.3-3.5-0.5-5.3s-0.4-3.5-0.6-5.3s-0.5-3.5-0.7-5.3
		s-0.5-3.5-0.8-5.2s-0.6-2.4-1-4.1s-0.7-3.3-1.1-4.9s-0.8-3.1-1.2-4.6c-0.4-1.2-0.7-2.4-1.1-3.6c-0.2-0.7-0.3-1.3-0.4-2
		c0.1-0.6,0.9-0.2,1.7-0.3l0.6-0.1c5.2-0.7,14.2-0.2,16.3-0.1s12.3,1,15.2,1.3s6.4,0.9,6.2-7.8c0-2.3,0-3.7,0-5.9v-0.9
		c0-0.5,0-1.1,0-1.6c0-0.3,0-0.6,0-0.9s0-0.6,0-0.9s0-0.5,0-0.8c0-0.5,0-0.9,0-1.3c0-0.1,0-0.3,0-0.4c0-0.3,0-0.6,0-0.9
		c0-0.1,0-0.3,0-0.4s0-0.5,0-0.6s0-0.1,0-0.2c0-0.3,0-0.5,0-0.9c0.1-2.1-0.2-6-4.2-7.1c-4.6-1.2-12.8-1.4-20.1-0.8
		c-1,0.1-1.3,0-0.9-0.3v-0.1c8.6-5.2,16.7-11.1,24.3-17.8c13.3-12,19.7-18.3,23.8-27c0,0,14.6-28.3,13.9-52.3
		c-0.1-4.8,0.6-4.4,3.6-4.3c0.9,0,4.4-0.2,6.2-1.4c6.2-1.4,11.7-22.5,11.7-22.5s9.3-32.1,11.5-45.2c2-11.7,1.5-18.5-5.6-22l-1.2-0.7
		c-0.5-0.3-0.8-0.9-0.6-1.5c0.1-0.5,0.3-1.1,0.4-1.5c3.5-12.1,9.7-27.4,8.3-33.6c-0.3-1.2-1.1-2.2-2.3-2.7c-1.8-1.6-3.2-3.5-4.3-5.7
		c-0.1-0.3-0.2-0.7-0.2-1c-2-22.8-10.1-51.5-34.2-76.4l-2.6-2.4c-2.1-1.9-4.7-4.2-7.8-6.5c-6.9-5.4-14.3-10-22.1-13.8
		c-6.6-2.9-13.5-5.2-20.5-6.9c-1.1-0.3-2.2-0.6-3.3-0.8c-1.7-0.4-4.4-0.9-7.5-1.3c-7.8-1.3-15.7-1.7-23.6-1.2l0,0
		c-1,0.1-2.2,0.1-2.5,0.1l-1.5,0.1h-1.7c-1.8,0.1-4.1,0.4-6.5,0.7c-4,0.6-8.2,1.4-10.8,2c-2.9,0.7-6.9,1.5-11.8,2.9
		c-2,0.6-4,1.2-6.1,1.9c-0.6,0.2-1.1,0.4-1.7,0.5c-2.2,0.7-4.4,1.5-6.6,2.3c-1.6,0.6-8.5,3.5-9.9,4.2c-0.7,0.3-1.7,0.8-2.8,1.2
		c-4.8,1.5-5.8,4.3-6,5.9c-0.1,1-0.4,2-0.8,2.9c-7,14.8-23.3,16.2-29.8,16.5c-1.7,0.1-3.2,0.3-2.7,2c1.4,4.2,9,12.1,13.7,13.6
		c-0.1,0.7-4,1.5-4.8,1.8c-1.9,0.5-9.6-0.2-10-0.1h-0.1c-8.8,0.7-11.5,6.7-12.3,9.6c-0.3,0.9-0.1,1.8,0.4,2.6c1.9,3,4,5.4,5.5,9.3
		v0.1c0.4,1.1,0.8,2.3,1.1,3.4c0.2,1.7,1.5,3.4-0.2,6.7c-3,5.8-10.5,7.6-11.6,13.4c-1.6,8.2,1.2,13.6,4.3,27.1
		c2.1,9.3,4.4,18.9,6.1,23.3c0.1,0.2,0,0.4-0.2,0.5c0,0,0,0-0.1,0c-0.7,0.1-1.8,0.4-2.2,0.5c-4.3,1.7-5.7,5.1-6.2,11.8
		c-1.1,14.8,9.8,37.6,13.2,57.1c1.1,6.6,4.2,17.1,9.2,21.5c1.2,1,3.6,1.6,5.1,1.9c4,0.7,5.7-1.8,5.9,2.2c0,0.8,0.3,3,0.4,4.3
		c0.7,14,8.2,27.9,8.2,27.9"/>
	<path class="st1" d="M116.1,21H30.5c-5.1,0-9.1,4.1-9.1,9.2c0,0.2,0,0.5,0,0.7l30.2,380.6h64.5V21z"/>
	<path class="st1" d="M514.6,21h-85.7v390.4h64.6l30.2-380.6c0.4-5-3.4-9.4-8.4-9.8C515,21,514.8,21,514.6,21z"/>
	<path d="M518.8,522.1V512h-4v-1.9h10.3v1.9h-4v10.1H518.8z"/>
	<path d="M533.7,519.4h-1.4l-2.9-6l0,0v2.3v6.4h-2.2V510h2.6l3.3,6.8l0,0l3.3-6.8h2.5v12.1h-2.2v-6.4v-2.3l0,0L533.7,519.4z"/>
</g>
</svg>
